<svg id="Layer_1" data-name="Layer 1" xmlns="http://www.w3.org/2000/svg" viewBox="0 0 116.72 92.88"><defs><style>.cls-1{fill:#f7f8fb;}.cls-2{fill:#ced5df;}.cls-3{fill:#231f20;}.cls-4{fill:#fff;}</style></defs><title>bg__desktop</title><polygon class="cls-1" points="45.01 80.19 43.88 91.44 40.06 92.88 75.98 92.88 72.37 91.44 70.49 80.24 45.01 80.19"/><path class="cls-2" d="M41.06,92.72c.18-.07,19.93,0,19.93,0L71.63,80.81H45.77l-.89,10.47Z" transform="translate(-1 0.16)"/><rect class="cls-3" x="0.15" width="116.57" height="81.31" rx="2.28" ry="2.28"/><rect class="cls-4" x="5.16" y="6.37" width="105.61" height="60.09"/><path class="cls-2" d="M114.1,82.54,4.62,82.7A3.76,3.76,0,0,1,1,78.81v-8.6l116.72.16v8.28A3.76,3.76,0,0,1,114.1,82.54Z" transform="translate(-1 0.16)"/></svg>